<?xml version="1.0" encoding="UTF-8" standalone="no"?>
<!DOCTYPE svg PUBLIC "-//W3C//DTD SVG 1.1//EN"
 "http://www.w3.org/Graphics/SVG/1.1/DTD/svg11.dtd">
<!-- Generated by graphviz version 9.0.0 (0)
 -->
<!-- Pages: 1 -->
<svg width="395pt" height="692pt"
 viewBox="0.00 0.00 395.32 692.00" xmlns="http://www.w3.org/2000/svg" xmlns:xlink="http://www.w3.org/1999/xlink">
<g id="graph0" class="graph" transform="scale(1 1) rotate(0) translate(4 688)">
<polygon fill="white" stroke="none" points="-4,4 -4,-688 391.32,-688 391.32,4 -4,4"/>
<!-- 1 -->
<g id="node1" class="node">
<title>1</title>
<ellipse fill="none" stroke="black" cx="84.16" cy="-18" rx="31.74" ry="18"/>
<text text-anchor="middle" x="84.16" y="-13.32" font-family="Times,serif" font-size="14.00">Neg</text>
</g>
<!-- 2 -->
<g id="node2" class="node">
<title>2</title>
<ellipse fill="none" stroke="black" cx="84.16" cy="-90" rx="33.85" ry="18"/>
<text text-anchor="middle" x="84.16" y="-85.33" font-family="Times,serif" font-size="14.00">Sum</text>
</g>
<!-- 2&#45;&gt;1 -->
<g id="edge1" class="edge">
<title>2&#45;&gt;1</title>
<path fill="none" stroke="black" d="M84.16,-71.7C84.16,-64.41 84.16,-55.73 84.16,-47.54"/>
<polygon fill="black" stroke="black" points="87.66,-47.62 84.16,-37.62 80.66,-47.62 87.66,-47.62"/>
</g>
<!-- 3 -->
<g id="node3" class="node">
<title>3</title>
<ellipse fill="none" stroke="black" cx="84.16" cy="-162" rx="30.69" ry="18"/>
<text text-anchor="middle" x="84.16" y="-157.32" font-family="Times,serif" font-size="14.00">Mul</text>
</g>
<!-- 3&#45;&gt;2 -->
<g id="edge2" class="edge">
<title>3&#45;&gt;2</title>
<path fill="none" stroke="black" d="M84.16,-143.7C84.16,-136.41 84.16,-127.73 84.16,-119.54"/>
<polygon fill="black" stroke="black" points="87.66,-119.62 84.16,-109.62 80.66,-119.62 87.66,-119.62"/>
</g>
<!-- 4 -->
<g id="node4" class="node">
<title>4</title>
<ellipse fill="none" stroke="black" cx="40.16" cy="-234" rx="40.16" ry="18"/>
<text text-anchor="middle" x="40.16" y="-229.32" font-family="Times,serif" font-size="14.00">Const</text>
</g>
<!-- 4&#45;&gt;3 -->
<g id="edge4" class="edge">
<title>4&#45;&gt;3</title>
<path fill="none" stroke="black" d="M50.59,-216.41C55.81,-208.1 62.26,-197.85 68.1,-188.56"/>
<polygon fill="black" stroke="black" points="70.95,-190.6 73.3,-180.27 65.02,-186.87 70.95,-190.6"/>
</g>
<!-- 5 -->
<g id="node5" class="node">
<title>5</title>
<ellipse fill="none" stroke="black" cx="128.16" cy="-234" rx="29.64" ry="18"/>
<text text-anchor="middle" x="128.16" y="-229.32" font-family="Times,serif" font-size="14.00">Log</text>
</g>
<!-- 5&#45;&gt;3 -->
<g id="edge3" class="edge">
<title>5&#45;&gt;3</title>
<path fill="none" stroke="black" d="M117.95,-216.76C112.73,-208.46 106.26,-198.15 100.37,-188.79"/>
<polygon fill="black" stroke="black" points="103.4,-187.03 95.11,-180.43 97.47,-190.76 103.4,-187.03"/>
</g>
<!-- 6 -->
<g id="node6" class="node">
<title>6</title>
<ellipse fill="none" stroke="black" cx="128.16" cy="-306" rx="53.31" ry="18"/>
<text text-anchor="middle" x="128.16" y="-301.32" font-family="Times,serif" font-size="14.00">SoftMax</text>
</g>
<!-- 6&#45;&gt;5 -->
<g id="edge5" class="edge">
<title>6&#45;&gt;5</title>
<path fill="none" stroke="black" d="M128.16,-287.7C128.16,-280.41 128.16,-271.73 128.16,-263.54"/>
<polygon fill="black" stroke="black" points="131.66,-263.62 128.16,-253.62 124.66,-263.62 131.66,-263.62"/>
</g>
<!-- 7 -->
<g id="node7" class="node">
<title>7</title>
<ellipse fill="none" stroke="black" cx="128.16" cy="-378" rx="30.69" ry="18"/>
<text text-anchor="middle" x="128.16" y="-373.32" font-family="Times,serif" font-size="14.00">Add</text>
</g>
<!-- 7&#45;&gt;6 -->
<g id="edge6" class="edge">
<title>7&#45;&gt;6</title>
<path fill="none" stroke="black" d="M128.16,-359.7C128.16,-352.41 128.16,-343.73 128.16,-335.54"/>
<polygon fill="black" stroke="black" points="131.66,-335.62 128.16,-325.62 124.66,-335.62 131.66,-335.62"/>
</g>
<!-- 8 -->
<g id="node8" class="node">
<title>8</title>
<ellipse fill="none" stroke="black" cx="73.16" cy="-450" rx="42.26" ry="18"/>
<text text-anchor="middle" x="73.16" y="-445.32" font-family="Times,serif" font-size="14.00">Bias 2</text>
</g>
<!-- 8&#45;&gt;7 -->
<g id="edge8" class="edge">
<title>8&#45;&gt;7</title>
<path fill="none" stroke="black" d="M86.19,-432.41C92.96,-423.8 101.36,-413.11 108.86,-403.56"/>
<polygon fill="black" stroke="black" points="111.61,-405.73 115.04,-395.7 106.11,-401.4 111.61,-405.73"/>
</g>
<!-- 9 -->
<g id="node9" class="node">
<title>9</title>
<ellipse fill="none" stroke="black" cx="183.16" cy="-450" rx="50.16" ry="18"/>
<text text-anchor="middle" x="183.16" y="-445.32" font-family="Times,serif" font-size="14.00">Matmul</text>
</g>
<!-- 9&#45;&gt;7 -->
<g id="edge7" class="edge">
<title>9&#45;&gt;7</title>
<path fill="none" stroke="black" d="M170.13,-432.41C163.36,-423.8 154.96,-413.11 147.46,-403.56"/>
<polygon fill="black" stroke="black" points="150.21,-401.4 141.28,-395.7 144.71,-405.73 150.21,-401.4"/>
</g>
<!-- 10 -->
<g id="node10" class="node">
<title>10</title>
<ellipse fill="none" stroke="black" cx="131.16" cy="-522" rx="55.42" ry="18"/>
<text text-anchor="middle" x="131.16" y="-517.33" font-family="Times,serif" font-size="14.00">Weight 2</text>
</g>
<!-- 10&#45;&gt;9 -->
<g id="edge10" class="edge">
<title>10&#45;&gt;9</title>
<path fill="none" stroke="black" d="M143.75,-504.05C149.82,-495.89 157.23,-485.91 163.98,-476.82"/>
<polygon fill="black" stroke="black" points="166.63,-479.12 169.79,-469 161.01,-474.94 166.63,-479.12"/>
</g>
<!-- 11 -->
<g id="node11" class="node">
<title>11</title>
<ellipse fill="none" stroke="black" cx="235.16" cy="-522" rx="30.69" ry="18"/>
<text text-anchor="middle" x="235.16" y="-517.33" font-family="Times,serif" font-size="14.00">Add</text>
</g>
<!-- 11&#45;&gt;9 -->
<g id="edge9" class="edge">
<title>11&#45;&gt;9</title>
<path fill="none" stroke="black" d="M223.36,-505.12C217.16,-496.77 209.4,-486.32 202.36,-476.84"/>
<polygon fill="black" stroke="black" points="205.31,-474.95 196.54,-469.01 199.69,-479.13 205.31,-474.95"/>
</g>
<!-- 12 -->
<g id="node12" class="node">
<title>12</title>
<ellipse fill="none" stroke="black" cx="180.16" cy="-594" rx="42.26" ry="18"/>
<text text-anchor="middle" x="180.16" y="-589.33" font-family="Times,serif" font-size="14.00">Bias 1</text>
</g>
<!-- 12&#45;&gt;11 -->
<g id="edge12" class="edge">
<title>12&#45;&gt;11</title>
<path fill="none" stroke="black" d="M193.19,-576.41C199.96,-567.8 208.36,-557.11 215.86,-547.56"/>
<polygon fill="black" stroke="black" points="218.61,-549.73 222.04,-539.7 213.11,-545.4 218.61,-549.73"/>
</g>
<!-- 13 -->
<g id="node13" class="node">
<title>13</title>
<ellipse fill="none" stroke="black" cx="290.16" cy="-594" rx="50.16" ry="18"/>
<text text-anchor="middle" x="290.16" y="-589.33" font-family="Times,serif" font-size="14.00">Matmul</text>
</g>
<!-- 13&#45;&gt;11 -->
<g id="edge11" class="edge">
<title>13&#45;&gt;11</title>
<path fill="none" stroke="black" d="M277.13,-576.41C270.36,-567.8 261.96,-557.11 254.46,-547.56"/>
<polygon fill="black" stroke="black" points="257.21,-545.4 248.28,-539.7 251.71,-549.73 257.21,-545.4"/>
</g>
<!-- 14 -->
<g id="node14" class="node">
<title>14</title>
<ellipse fill="none" stroke="black" cx="233.16" cy="-666" rx="55.42" ry="18"/>
<text text-anchor="middle" x="233.16" y="-661.33" font-family="Times,serif" font-size="14.00">Weight 1</text>
</g>
<!-- 14&#45;&gt;13 -->
<g id="edge14" class="edge">
<title>14&#45;&gt;13</title>
<path fill="none" stroke="black" d="M246.67,-648.41C253.48,-640.04 261.9,-629.71 269.5,-620.37"/>
<polygon fill="black" stroke="black" points="272.19,-622.61 275.79,-612.64 266.76,-618.19 272.19,-622.61"/>
</g>
<!-- 15 -->
<g id="node15" class="node">
<title>15</title>
<ellipse fill="none" stroke="black" cx="347.16" cy="-666" rx="40.16" ry="18"/>
<text text-anchor="middle" x="347.16" y="-661.33" font-family="Times,serif" font-size="14.00">Const</text>
</g>
<!-- 15&#45;&gt;13 -->
<g id="edge13" class="edge">
<title>15&#45;&gt;13</title>
<path fill="none" stroke="black" d="M333.94,-648.76C327.06,-640.32 318.5,-629.8 310.77,-620.31"/>
<polygon fill="black" stroke="black" points="313.69,-618.35 304.66,-612.81 308.26,-622.77 313.69,-618.35"/>
</g>
</g>
</svg>
